<?xml version="1.0"?>
<svg xmlns="http://www.w3.org/2000/svg" viewBox="0 0 16 16">
    <path style="line-height:normal;text-indent:0;text-align:start;text-decoration-line:none;text-decoration-style:solid;text-decoration-color:#000;text-transform:none;block-progression:tb;isolation:auto;mix-blend-mode:normal" d="M 2.5 1 C 1.6774686 1 1 1.6774686 1 2.5 L 1 4.5 C 1 5.3225314 1.6774686 6 2.5 6 L 3 6 L 3 7 L 4 7 L 4 6 L 4.5 6 C 5.3225314 6 6 5.3225314 6 4.5 L 6 2.5 C 6 1.6774686 5.3225314 1 4.5 1 L 2.5 1 z M 4 7 L 4 8 L 5 8 L 5 7 L 4 7 z M 4 8 L 3 8 L 3 9 L 4 9 L 4 8 z M 3 8 L 3 7 L 2 7 L 2 8 L 3 8 z M 11.5 1 C 10.677469 1 10 1.6774686 10 2.5 L 10 4.5 C 10 5.3225314 10.677469 6 11.5 6 L 12 6 L 12 7 L 13 7 L 13 6 L 13.5 6 C 14.322531 6 15 5.3225314 15 4.5 L 15 2.5 C 15 1.6774686 14.322531 1 13.5 1 L 11.5 1 z M 13 7 L 13 8 L 14 8 L 14 7 L 13 7 z M 13 8 L 12 8 L 12 9 L 13 9 L 13 8 z M 13 9 L 13 10 L 14 10 L 14 9 L 13 9 z M 13 10 L 12 10 L 12 11 L 13 11 L 13 10 z M 12 10 L 12 9 L 11 9 L 11 10 L 12 10 z M 2.5 2 L 4.5 2 C 4.7814686 2 5 2.2185314 5 2.5 L 5 4.5 C 5 4.7814686 4.7814686 5 4.5 5 L 2.5 5 C 2.2185314 5 2 4.7814686 2 4.5 L 2 2.5 C 2 2.2185314 2.2185314 2 2.5 2 z M 8 2 L 8 3 L 7 3 L 7 4 L 8 4 L 8 5 L 9 5 L 9 2 L 8 2 z M 11.5 2 L 13.5 2 C 13.781469 2 14 2.2185314 14 2.5 L 14 4.5 C 14 4.7814686 13.781469 5 13.5 5 L 11.5 5 C 11.218531 5 11 4.7814686 11 4.5 L 11 2.5 C 11 2.2185314 11.218531 2 11.5 2 z M 3 3 L 3 4 L 4 4 L 4 3 L 3 3 z M 12 3 L 12 4 L 13 4 L 13 3 L 12 3 z M 6 6 L 6 7 L 9 7 L 9 8 L 10 8 L 10 7 L 10 6 L 6 6 z M 7 8 L 7 9 L 6 9 L 6 10 L 10 10 L 10 9 L 8 9 L 8 8 L 7 8 z M 2.5 10 C 1.6774686 10 1 10.677469 1 11.5 L 1 13.5 C 1 14.322531 1.6774686 15 2.5 15 L 4.5 15 C 5.3225314 15 6 14.322531 6 13.5 L 6 11.5 C 6 10.677469 5.3225314 10 4.5 10 L 2.5 10 z M 2.5 11 L 4.5 11 C 4.7814686 11 5 11.218531 5 11.5 L 5 13.5 C 5 13.781469 4.7814686 14 4.5 14 L 2.5 14 C 2.2185314 14 2 13.781469 2 13.5 L 2 11.5 C 2 11.218531 2.2185314 11 2.5 11 z M 7 11 L 7 14 L 8 14 L 8 11 L 7 11 z M 3 12 L 3 13 L 4 13 L 4 12 L 3 12 z M 10 12 L 10 13 L 11 13 L 11 12 L 10 12 z M 11 13 L 11 14 L 12 14 L 12 13 L 11 13 z M 12 13 L 13 13 L 13 12 L 12 12 L 12 13 z M 13 13 L 13 14 L 14 14 L 14 13 L 13 13 z"/>
</svg>
